<mxfile host="app.diagrams.net" agent="Mozilla/5.0 (Windows NT 10.0; Win64; x64) AppleWebKit/537.36 (KHTML, like Gecko) Chrome/131.0.0.0 Safari/537.36" version="24.9.1">
  <diagram name="Page-1" id="80jnHhsRAkX0742oXOiR">
    <mxGraphModel dx="2465" dy="803" grid="1" gridSize="10" guides="1" tooltips="1" connect="1" arrows="1" fold="1" page="1" pageScale="1" pageWidth="850" pageHeight="1100" math="0" shadow="0">
      <root>
        <mxCell id="0" />
        <mxCell id="1" parent="0" />
        <mxCell id="Nw4AGhwbBwVw_NAoLLml-2" value="Members" style="whiteSpace=wrap;html=1;align=center;" vertex="1" parent="1">
          <mxGeometry x="90" y="90" width="100" height="40" as="geometry" />
        </mxCell>
        <mxCell id="Nw4AGhwbBwVw_NAoLLml-4" value="Registrations" style="whiteSpace=wrap;html=1;align=center;" vertex="1" parent="1">
          <mxGeometry x="420" y="90" width="100" height="40" as="geometry" />
        </mxCell>
        <mxCell id="Nw4AGhwbBwVw_NAoLLml-5" value="Roles" style="whiteSpace=wrap;html=1;align=center;" vertex="1" parent="1">
          <mxGeometry x="90" y="340" width="100" height="40" as="geometry" />
        </mxCell>
        <mxCell id="Nw4AGhwbBwVw_NAoLLml-6" value="MemberRole" style="shape=associativeEntity;whiteSpace=wrap;html=1;align=center;" vertex="1" parent="1">
          <mxGeometry x="70" y="210" width="140" height="60" as="geometry" />
        </mxCell>
        <mxCell id="Nw4AGhwbBwVw_NAoLLml-7" value="" style="endArrow=none;html=1;rounded=0;" edge="1" parent="1" source="Nw4AGhwbBwVw_NAoLLml-2" target="Nw4AGhwbBwVw_NAoLLml-4">
          <mxGeometry relative="1" as="geometry">
            <mxPoint x="200" y="180" as="sourcePoint" />
            <mxPoint x="360" y="180" as="targetPoint" />
          </mxGeometry>
        </mxCell>
        <mxCell id="Nw4AGhwbBwVw_NAoLLml-8" value="N" style="resizable=0;html=1;whiteSpace=wrap;align=right;verticalAlign=bottom;" connectable="0" vertex="1" parent="Nw4AGhwbBwVw_NAoLLml-7">
          <mxGeometry x="1" relative="1" as="geometry" />
        </mxCell>
        <mxCell id="Nw4AGhwbBwVw_NAoLLml-9" value="" style="endArrow=none;html=1;rounded=0;" edge="1" parent="1" source="Nw4AGhwbBwVw_NAoLLml-3" target="Nw4AGhwbBwVw_NAoLLml-4">
          <mxGeometry relative="1" as="geometry">
            <mxPoint x="200" y="120" as="sourcePoint" />
            <mxPoint x="430" y="120" as="targetPoint" />
          </mxGeometry>
        </mxCell>
        <mxCell id="Nw4AGhwbBwVw_NAoLLml-10" value="N" style="resizable=0;html=1;whiteSpace=wrap;align=right;verticalAlign=bottom;" connectable="0" vertex="1" parent="Nw4AGhwbBwVw_NAoLLml-9">
          <mxGeometry x="1" relative="1" as="geometry">
            <mxPoint y="20" as="offset" />
          </mxGeometry>
        </mxCell>
        <mxCell id="Nw4AGhwbBwVw_NAoLLml-11" value="" style="endArrow=none;html=1;rounded=0;" edge="1" parent="1" source="Nw4AGhwbBwVw_NAoLLml-2" target="Nw4AGhwbBwVw_NAoLLml-6">
          <mxGeometry relative="1" as="geometry">
            <mxPoint x="480" y="350" as="sourcePoint" />
            <mxPoint x="480" y="140" as="targetPoint" />
          </mxGeometry>
        </mxCell>
        <mxCell id="Nw4AGhwbBwVw_NAoLLml-12" value="N" style="resizable=0;html=1;whiteSpace=wrap;align=right;verticalAlign=bottom;" connectable="0" vertex="1" parent="Nw4AGhwbBwVw_NAoLLml-11">
          <mxGeometry x="1" relative="1" as="geometry" />
        </mxCell>
        <mxCell id="Nw4AGhwbBwVw_NAoLLml-13" value="" style="endArrow=none;html=1;rounded=0;" edge="1" parent="1" source="Nw4AGhwbBwVw_NAoLLml-5" target="Nw4AGhwbBwVw_NAoLLml-6">
          <mxGeometry relative="1" as="geometry">
            <mxPoint x="150" y="280" as="sourcePoint" />
            <mxPoint x="150" y="350" as="targetPoint" />
          </mxGeometry>
        </mxCell>
        <mxCell id="Nw4AGhwbBwVw_NAoLLml-14" value="N" style="resizable=0;html=1;whiteSpace=wrap;align=right;verticalAlign=bottom;" connectable="0" vertex="1" parent="Nw4AGhwbBwVw_NAoLLml-13">
          <mxGeometry x="1" relative="1" as="geometry">
            <mxPoint y="20" as="offset" />
          </mxGeometry>
        </mxCell>
        <mxCell id="Nw4AGhwbBwVw_NAoLLml-15" value="&lt;u&gt;member_id&lt;/u&gt;" style="ellipse;whiteSpace=wrap;html=1;align=center;" vertex="1" parent="1">
          <mxGeometry x="90" y="10" width="100" height="40" as="geometry" />
        </mxCell>
        <mxCell id="Nw4AGhwbBwVw_NAoLLml-16" value="name" style="ellipse;whiteSpace=wrap;html=1;align=center;" vertex="1" parent="1">
          <mxGeometry x="-20" y="40" width="100" height="40" as="geometry" />
        </mxCell>
        <mxCell id="Nw4AGhwbBwVw_NAoLLml-17" value="email" style="ellipse;whiteSpace=wrap;html=1;align=center;" vertex="1" parent="1">
          <mxGeometry x="-50" y="110" width="100" height="40" as="geometry" />
        </mxCell>
        <mxCell id="Nw4AGhwbBwVw_NAoLLml-18" value="join_at" style="ellipse;whiteSpace=wrap;html=1;align=center;" vertex="1" parent="1">
          <mxGeometry x="210" y="40" width="100" height="40" as="geometry" />
        </mxCell>
        <mxCell id="Nw4AGhwbBwVw_NAoLLml-20" value="&lt;u&gt;member_id&lt;/u&gt;" style="ellipse;whiteSpace=wrap;html=1;align=center;" vertex="1" parent="1">
          <mxGeometry x="410" y="20" width="100" height="40" as="geometry" />
        </mxCell>
        <mxCell id="Nw4AGhwbBwVw_NAoLLml-21" value="&lt;u&gt;event_id&lt;/u&gt;" style="ellipse;whiteSpace=wrap;html=1;align=center;" vertex="1" parent="1">
          <mxGeometry x="530" y="40" width="100" height="40" as="geometry" />
        </mxCell>
        <mxCell id="Nw4AGhwbBwVw_NAoLLml-22" value="registered_at" style="ellipse;whiteSpace=wrap;html=1;align=center;" vertex="1" parent="1">
          <mxGeometry x="540" y="100" width="100" height="40" as="geometry" />
        </mxCell>
        <mxCell id="Nw4AGhwbBwVw_NAoLLml-23" value="register_id" style="ellipse;whiteSpace=wrap;html=1;align=center;" vertex="1" parent="1">
          <mxGeometry x="510" y="160" width="100" height="40" as="geometry" />
        </mxCell>
        <mxCell id="Nw4AGhwbBwVw_NAoLLml-27" value="name" style="ellipse;whiteSpace=wrap;html=1;align=center;" vertex="1" parent="1">
          <mxGeometry x="30" y="410" width="100" height="40" as="geometry" />
        </mxCell>
        <mxCell id="Nw4AGhwbBwVw_NAoLLml-28" value="&lt;u&gt;role_id&lt;/u&gt;" style="ellipse;whiteSpace=wrap;html=1;align=center;" vertex="1" parent="1">
          <mxGeometry x="-20" y="330" width="100" height="40" as="geometry" />
        </mxCell>
        <mxCell id="Nw4AGhwbBwVw_NAoLLml-31" value="&lt;u&gt;member_id&lt;/u&gt;" style="ellipse;whiteSpace=wrap;html=1;align=center;" vertex="1" parent="1">
          <mxGeometry x="230" y="260" width="100" height="40" as="geometry" />
        </mxCell>
        <mxCell id="Nw4AGhwbBwVw_NAoLLml-32" value="&lt;u&gt;role_id&lt;/u&gt;" style="ellipse;whiteSpace=wrap;html=1;align=center;" vertex="1" parent="1">
          <mxGeometry x="-50" y="220" width="100" height="40" as="geometry" />
        </mxCell>
        <mxCell id="Nw4AGhwbBwVw_NAoLLml-33" value="&lt;u&gt;member_role_id&lt;/u&gt;" style="ellipse;whiteSpace=wrap;html=1;align=center;" vertex="1" parent="1">
          <mxGeometry x="230" y="180" width="100" height="40" as="geometry" />
        </mxCell>
        <mxCell id="Nw4AGhwbBwVw_NAoLLml-34" value="" style="endArrow=none;html=1;rounded=0;" edge="1" parent="1" source="Nw4AGhwbBwVw_NAoLLml-28" target="Nw4AGhwbBwVw_NAoLLml-5">
          <mxGeometry relative="1" as="geometry">
            <mxPoint x="-160" y="420" as="sourcePoint" />
            <mxPoint y="420" as="targetPoint" />
          </mxGeometry>
        </mxCell>
        <mxCell id="Nw4AGhwbBwVw_NAoLLml-35" value="" style="endArrow=none;html=1;rounded=0;" edge="1" parent="1" source="Nw4AGhwbBwVw_NAoLLml-27" target="Nw4AGhwbBwVw_NAoLLml-5">
          <mxGeometry relative="1" as="geometry">
            <mxPoint x="69" y="377" as="sourcePoint" />
            <mxPoint x="100" y="374" as="targetPoint" />
          </mxGeometry>
        </mxCell>
        <mxCell id="Nw4AGhwbBwVw_NAoLLml-36" value="" style="endArrow=none;html=1;rounded=0;" edge="1" parent="1" source="Nw4AGhwbBwVw_NAoLLml-6" target="Nw4AGhwbBwVw_NAoLLml-31">
          <mxGeometry relative="1" as="geometry">
            <mxPoint x="135" y="420" as="sourcePoint" />
            <mxPoint x="144" y="390" as="targetPoint" />
          </mxGeometry>
        </mxCell>
        <mxCell id="Nw4AGhwbBwVw_NAoLLml-37" value="" style="endArrow=none;html=1;rounded=0;" edge="1" parent="1" source="Nw4AGhwbBwVw_NAoLLml-6" target="Nw4AGhwbBwVw_NAoLLml-33">
          <mxGeometry relative="1" as="geometry">
            <mxPoint x="220" y="270" as="sourcePoint" />
            <mxPoint x="249" y="278" as="targetPoint" />
          </mxGeometry>
        </mxCell>
        <mxCell id="Nw4AGhwbBwVw_NAoLLml-38" value="" style="endArrow=none;html=1;rounded=0;" edge="1" parent="1" source="Nw4AGhwbBwVw_NAoLLml-6" target="Nw4AGhwbBwVw_NAoLLml-32">
          <mxGeometry relative="1" as="geometry">
            <mxPoint x="220" y="230" as="sourcePoint" />
            <mxPoint x="249" y="222" as="targetPoint" />
          </mxGeometry>
        </mxCell>
        <mxCell id="Nw4AGhwbBwVw_NAoLLml-39" value="" style="endArrow=none;html=1;rounded=0;" edge="1" parent="1" source="Nw4AGhwbBwVw_NAoLLml-2" target="Nw4AGhwbBwVw_NAoLLml-17">
          <mxGeometry relative="1" as="geometry">
            <mxPoint x="80" y="250" as="sourcePoint" />
            <mxPoint x="60" y="250" as="targetPoint" />
          </mxGeometry>
        </mxCell>
        <mxCell id="Nw4AGhwbBwVw_NAoLLml-40" value="" style="endArrow=none;html=1;rounded=0;" edge="1" parent="1" source="Nw4AGhwbBwVw_NAoLLml-2" target="Nw4AGhwbBwVw_NAoLLml-16">
          <mxGeometry relative="1" as="geometry">
            <mxPoint x="100" y="127" as="sourcePoint" />
            <mxPoint x="57" y="133" as="targetPoint" />
          </mxGeometry>
        </mxCell>
        <mxCell id="Nw4AGhwbBwVw_NAoLLml-41" value="" style="endArrow=none;html=1;rounded=0;" edge="1" parent="1" source="Nw4AGhwbBwVw_NAoLLml-2" target="Nw4AGhwbBwVw_NAoLLml-15">
          <mxGeometry relative="1" as="geometry">
            <mxPoint x="106" y="100" as="sourcePoint" />
            <mxPoint x="73" y="85" as="targetPoint" />
          </mxGeometry>
        </mxCell>
        <mxCell id="Nw4AGhwbBwVw_NAoLLml-42" value="" style="endArrow=none;html=1;rounded=0;" edge="1" parent="1" source="Nw4AGhwbBwVw_NAoLLml-2" target="Nw4AGhwbBwVw_NAoLLml-18">
          <mxGeometry relative="1" as="geometry">
            <mxPoint x="150" y="100" as="sourcePoint" />
            <mxPoint x="150" y="60" as="targetPoint" />
          </mxGeometry>
        </mxCell>
        <mxCell id="Nw4AGhwbBwVw_NAoLLml-43" value="" style="endArrow=none;html=1;rounded=0;" edge="1" parent="1" source="Nw4AGhwbBwVw_NAoLLml-4" target="Nw4AGhwbBwVw_NAoLLml-20">
          <mxGeometry relative="1" as="geometry">
            <mxPoint x="198" y="100" as="sourcePoint" />
            <mxPoint x="235" y="84" as="targetPoint" />
          </mxGeometry>
        </mxCell>
        <mxCell id="Nw4AGhwbBwVw_NAoLLml-44" value="" style="endArrow=none;html=1;rounded=0;" edge="1" parent="1" source="Nw4AGhwbBwVw_NAoLLml-4" target="Nw4AGhwbBwVw_NAoLLml-21">
          <mxGeometry relative="1" as="geometry">
            <mxPoint x="477" y="100" as="sourcePoint" />
            <mxPoint x="473" y="70" as="targetPoint" />
          </mxGeometry>
        </mxCell>
        <mxCell id="Nw4AGhwbBwVw_NAoLLml-46" value="" style="endArrow=none;html=1;rounded=0;" edge="1" parent="1" source="Nw4AGhwbBwVw_NAoLLml-4" target="Nw4AGhwbBwVw_NAoLLml-22">
          <mxGeometry relative="1" as="geometry">
            <mxPoint x="524" y="100" as="sourcePoint" />
            <mxPoint x="557" y="85" as="targetPoint" />
          </mxGeometry>
        </mxCell>
        <mxCell id="Nw4AGhwbBwVw_NAoLLml-47" value="" style="endArrow=none;html=1;rounded=0;" edge="1" parent="1" source="Nw4AGhwbBwVw_NAoLLml-4" target="Nw4AGhwbBwVw_NAoLLml-23">
          <mxGeometry relative="1" as="geometry">
            <mxPoint x="530" y="124" as="sourcePoint" />
            <mxPoint x="551" y="126" as="targetPoint" />
          </mxGeometry>
        </mxCell>
        <mxCell id="Nw4AGhwbBwVw_NAoLLml-53" value="" style="group" vertex="1" connectable="0" parent="1">
          <mxGeometry x="300" y="280" width="350" height="170" as="geometry" />
        </mxCell>
        <mxCell id="Nw4AGhwbBwVw_NAoLLml-3" value="Events" style="whiteSpace=wrap;html=1;align=center;" vertex="1" parent="Nw4AGhwbBwVw_NAoLLml-53">
          <mxGeometry x="120" y="60" width="100" height="40" as="geometry" />
        </mxCell>
        <mxCell id="Nw4AGhwbBwVw_NAoLLml-24" value="&lt;u&gt;event_id&lt;/u&gt;" style="ellipse;whiteSpace=wrap;html=1;align=center;" vertex="1" parent="Nw4AGhwbBwVw_NAoLLml-53">
          <mxGeometry x="250" y="80" width="100" height="40" as="geometry" />
        </mxCell>
        <mxCell id="Nw4AGhwbBwVw_NAoLLml-25" value="name" style="ellipse;whiteSpace=wrap;html=1;align=center;" vertex="1" parent="Nw4AGhwbBwVw_NAoLLml-53">
          <mxGeometry y="80" width="100" height="40" as="geometry" />
        </mxCell>
        <mxCell id="Nw4AGhwbBwVw_NAoLLml-26" value="description" style="ellipse;whiteSpace=wrap;html=1;align=center;" vertex="1" parent="Nw4AGhwbBwVw_NAoLLml-53">
          <mxGeometry x="90" y="130" width="100" height="40" as="geometry" />
        </mxCell>
        <mxCell id="Nw4AGhwbBwVw_NAoLLml-29" value="location" style="ellipse;whiteSpace=wrap;html=1;align=center;" vertex="1" parent="Nw4AGhwbBwVw_NAoLLml-53">
          <mxGeometry x="50" width="100" height="40" as="geometry" />
        </mxCell>
        <mxCell id="Nw4AGhwbBwVw_NAoLLml-30" value="event_date" style="ellipse;whiteSpace=wrap;html=1;align=center;" vertex="1" parent="Nw4AGhwbBwVw_NAoLLml-53">
          <mxGeometry x="220" y="10" width="100" height="40" as="geometry" />
        </mxCell>
        <mxCell id="Nw4AGhwbBwVw_NAoLLml-49" value="" style="endArrow=none;html=1;rounded=0;" edge="1" parent="Nw4AGhwbBwVw_NAoLLml-53" source="Nw4AGhwbBwVw_NAoLLml-24" target="Nw4AGhwbBwVw_NAoLLml-3">
          <mxGeometry relative="1" as="geometry">
            <mxPoint x="249" y="56" as="sourcePoint" />
            <mxPoint x="220" y="70" as="targetPoint" />
          </mxGeometry>
        </mxCell>
        <mxCell id="Nw4AGhwbBwVw_NAoLLml-51" value="" style="endArrow=none;html=1;rounded=0;" edge="1" parent="Nw4AGhwbBwVw_NAoLLml-53" source="Nw4AGhwbBwVw_NAoLLml-25" target="Nw4AGhwbBwVw_NAoLLml-3">
          <mxGeometry relative="1" as="geometry">
            <mxPoint x="202" y="140" as="sourcePoint" />
            <mxPoint x="189" y="110" as="targetPoint" />
          </mxGeometry>
        </mxCell>
        <mxCell id="Nw4AGhwbBwVw_NAoLLml-50" value="" style="endArrow=none;html=1;rounded=0;" edge="1" parent="Nw4AGhwbBwVw_NAoLLml-53" source="Nw4AGhwbBwVw_NAoLLml-26" target="Nw4AGhwbBwVw_NAoLLml-3">
          <mxGeometry relative="1" as="geometry">
            <mxPoint x="263" y="103" as="sourcePoint" />
            <mxPoint x="230" y="98" as="targetPoint" />
          </mxGeometry>
        </mxCell>
        <mxCell id="Nw4AGhwbBwVw_NAoLLml-52" value="" style="endArrow=none;html=1;rounded=0;" edge="1" parent="Nw4AGhwbBwVw_NAoLLml-53" source="Nw4AGhwbBwVw_NAoLLml-29" target="Nw4AGhwbBwVw_NAoLLml-3">
          <mxGeometry relative="1" as="geometry">
            <mxPoint x="124" y="132" as="sourcePoint" />
            <mxPoint x="153" y="110" as="targetPoint" />
          </mxGeometry>
        </mxCell>
        <mxCell id="Nw4AGhwbBwVw_NAoLLml-48" value="" style="endArrow=none;html=1;rounded=0;" edge="1" parent="Nw4AGhwbBwVw_NAoLLml-53" source="Nw4AGhwbBwVw_NAoLLml-30" target="Nw4AGhwbBwVw_NAoLLml-3">
          <mxGeometry relative="1" as="geometry">
            <mxPoint x="206" y="-140" as="sourcePoint" />
            <mxPoint x="247" y="-108" as="targetPoint" />
          </mxGeometry>
        </mxCell>
        <mxCell id="Nw4AGhwbBwVw_NAoLLml-70" value="capacity" style="ellipse;whiteSpace=wrap;html=1;align=center;" vertex="1" parent="Nw4AGhwbBwVw_NAoLLml-53">
          <mxGeometry x="200" y="130" width="100" height="40" as="geometry" />
        </mxCell>
        <mxCell id="Nw4AGhwbBwVw_NAoLLml-72" value="" style="endArrow=none;html=1;rounded=0;" edge="1" parent="Nw4AGhwbBwVw_NAoLLml-53" source="Nw4AGhwbBwVw_NAoLLml-70" target="Nw4AGhwbBwVw_NAoLLml-3">
          <mxGeometry relative="1" as="geometry">
            <mxPoint x="263" y="103" as="sourcePoint" />
            <mxPoint x="230" y="98" as="targetPoint" />
          </mxGeometry>
        </mxCell>
        <mxCell id="Nw4AGhwbBwVw_NAoLLml-55" value="" style="endArrow=none;html=1;rounded=0;" edge="1" parent="1">
          <mxGeometry width="50" height="50" relative="1" as="geometry">
            <mxPoint x="250" y="288" as="sourcePoint" />
            <mxPoint x="310" y="288" as="targetPoint" />
          </mxGeometry>
        </mxCell>
        <mxCell id="Nw4AGhwbBwVw_NAoLLml-56" value="" style="endArrow=none;html=1;rounded=0;" edge="1" parent="1">
          <mxGeometry width="50" height="50" relative="1" as="geometry">
            <mxPoint x="-18" y="248" as="sourcePoint" />
            <mxPoint x="17" y="248" as="targetPoint" />
          </mxGeometry>
        </mxCell>
        <mxCell id="Nw4AGhwbBwVw_NAoLLml-57" value="" style="endArrow=none;html=1;rounded=0;" edge="1" parent="1">
          <mxGeometry width="50" height="50" relative="1" as="geometry">
            <mxPoint x="430" y="48" as="sourcePoint" />
            <mxPoint x="490" y="48" as="targetPoint" />
          </mxGeometry>
        </mxCell>
        <mxCell id="Nw4AGhwbBwVw_NAoLLml-73" value="Members" style="shape=table;startSize=30;container=1;collapsible=1;childLayout=tableLayout;fixedRows=1;rowLines=0;fontStyle=1;align=center;resizeLast=1;html=1;" vertex="1" parent="1">
          <mxGeometry x="60" y="570" width="180" height="150" as="geometry" />
        </mxCell>
        <mxCell id="Nw4AGhwbBwVw_NAoLLml-74" value="" style="shape=tableRow;horizontal=0;startSize=0;swimlaneHead=0;swimlaneBody=0;fillColor=none;collapsible=0;dropTarget=0;points=[[0,0.5],[1,0.5]];portConstraint=eastwest;top=0;left=0;right=0;bottom=1;" vertex="1" parent="Nw4AGhwbBwVw_NAoLLml-73">
          <mxGeometry y="30" width="180" height="30" as="geometry" />
        </mxCell>
        <mxCell id="Nw4AGhwbBwVw_NAoLLml-75" value="PK" style="shape=partialRectangle;connectable=0;fillColor=none;top=0;left=0;bottom=0;right=0;fontStyle=1;overflow=hidden;whiteSpace=wrap;html=1;" vertex="1" parent="Nw4AGhwbBwVw_NAoLLml-74">
          <mxGeometry width="30" height="30" as="geometry">
            <mxRectangle width="30" height="30" as="alternateBounds" />
          </mxGeometry>
        </mxCell>
        <mxCell id="Nw4AGhwbBwVw_NAoLLml-76" value="member_id" style="shape=partialRectangle;connectable=0;fillColor=none;top=0;left=0;bottom=0;right=0;align=left;spacingLeft=6;fontStyle=5;overflow=hidden;whiteSpace=wrap;html=1;" vertex="1" parent="Nw4AGhwbBwVw_NAoLLml-74">
          <mxGeometry x="30" width="150" height="30" as="geometry">
            <mxRectangle width="150" height="30" as="alternateBounds" />
          </mxGeometry>
        </mxCell>
        <mxCell id="Nw4AGhwbBwVw_NAoLLml-77" value="" style="shape=tableRow;horizontal=0;startSize=0;swimlaneHead=0;swimlaneBody=0;fillColor=none;collapsible=0;dropTarget=0;points=[[0,0.5],[1,0.5]];portConstraint=eastwest;top=0;left=0;right=0;bottom=0;" vertex="1" parent="Nw4AGhwbBwVw_NAoLLml-73">
          <mxGeometry y="60" width="180" height="30" as="geometry" />
        </mxCell>
        <mxCell id="Nw4AGhwbBwVw_NAoLLml-78" value="" style="shape=partialRectangle;connectable=0;fillColor=none;top=0;left=0;bottom=0;right=0;editable=1;overflow=hidden;whiteSpace=wrap;html=1;" vertex="1" parent="Nw4AGhwbBwVw_NAoLLml-77">
          <mxGeometry width="30" height="30" as="geometry">
            <mxRectangle width="30" height="30" as="alternateBounds" />
          </mxGeometry>
        </mxCell>
        <mxCell id="Nw4AGhwbBwVw_NAoLLml-79" value="name" style="shape=partialRectangle;connectable=0;fillColor=none;top=0;left=0;bottom=0;right=0;align=left;spacingLeft=6;overflow=hidden;whiteSpace=wrap;html=1;" vertex="1" parent="Nw4AGhwbBwVw_NAoLLml-77">
          <mxGeometry x="30" width="150" height="30" as="geometry">
            <mxRectangle width="150" height="30" as="alternateBounds" />
          </mxGeometry>
        </mxCell>
        <mxCell id="Nw4AGhwbBwVw_NAoLLml-80" value="" style="shape=tableRow;horizontal=0;startSize=0;swimlaneHead=0;swimlaneBody=0;fillColor=none;collapsible=0;dropTarget=0;points=[[0,0.5],[1,0.5]];portConstraint=eastwest;top=0;left=0;right=0;bottom=0;" vertex="1" parent="Nw4AGhwbBwVw_NAoLLml-73">
          <mxGeometry y="90" width="180" height="30" as="geometry" />
        </mxCell>
        <mxCell id="Nw4AGhwbBwVw_NAoLLml-81" value="" style="shape=partialRectangle;connectable=0;fillColor=none;top=0;left=0;bottom=0;right=0;editable=1;overflow=hidden;whiteSpace=wrap;html=1;" vertex="1" parent="Nw4AGhwbBwVw_NAoLLml-80">
          <mxGeometry width="30" height="30" as="geometry">
            <mxRectangle width="30" height="30" as="alternateBounds" />
          </mxGeometry>
        </mxCell>
        <mxCell id="Nw4AGhwbBwVw_NAoLLml-82" value="email" style="shape=partialRectangle;connectable=0;fillColor=none;top=0;left=0;bottom=0;right=0;align=left;spacingLeft=6;overflow=hidden;whiteSpace=wrap;html=1;" vertex="1" parent="Nw4AGhwbBwVw_NAoLLml-80">
          <mxGeometry x="30" width="150" height="30" as="geometry">
            <mxRectangle width="150" height="30" as="alternateBounds" />
          </mxGeometry>
        </mxCell>
        <mxCell id="Nw4AGhwbBwVw_NAoLLml-83" value="" style="shape=tableRow;horizontal=0;startSize=0;swimlaneHead=0;swimlaneBody=0;fillColor=none;collapsible=0;dropTarget=0;points=[[0,0.5],[1,0.5]];portConstraint=eastwest;top=0;left=0;right=0;bottom=0;" vertex="1" parent="Nw4AGhwbBwVw_NAoLLml-73">
          <mxGeometry y="120" width="180" height="30" as="geometry" />
        </mxCell>
        <mxCell id="Nw4AGhwbBwVw_NAoLLml-84" value="" style="shape=partialRectangle;connectable=0;fillColor=none;top=0;left=0;bottom=0;right=0;editable=1;overflow=hidden;whiteSpace=wrap;html=1;" vertex="1" parent="Nw4AGhwbBwVw_NAoLLml-83">
          <mxGeometry width="30" height="30" as="geometry">
            <mxRectangle width="30" height="30" as="alternateBounds" />
          </mxGeometry>
        </mxCell>
        <mxCell id="Nw4AGhwbBwVw_NAoLLml-85" value="join_at" style="shape=partialRectangle;connectable=0;fillColor=none;top=0;left=0;bottom=0;right=0;align=left;spacingLeft=6;overflow=hidden;whiteSpace=wrap;html=1;" vertex="1" parent="Nw4AGhwbBwVw_NAoLLml-83">
          <mxGeometry x="30" width="150" height="30" as="geometry">
            <mxRectangle width="150" height="30" as="alternateBounds" />
          </mxGeometry>
        </mxCell>
        <mxCell id="Nw4AGhwbBwVw_NAoLLml-86" value="events" style="shape=table;startSize=30;container=1;collapsible=1;childLayout=tableLayout;fixedRows=1;rowLines=0;fontStyle=1;align=center;resizeLast=1;html=1;" vertex="1" parent="1">
          <mxGeometry x="610" y="570" width="180" height="210" as="geometry" />
        </mxCell>
        <mxCell id="Nw4AGhwbBwVw_NAoLLml-87" value="" style="shape=tableRow;horizontal=0;startSize=0;swimlaneHead=0;swimlaneBody=0;fillColor=none;collapsible=0;dropTarget=0;points=[[0,0.5],[1,0.5]];portConstraint=eastwest;top=0;left=0;right=0;bottom=1;" vertex="1" parent="Nw4AGhwbBwVw_NAoLLml-86">
          <mxGeometry y="30" width="180" height="30" as="geometry" />
        </mxCell>
        <mxCell id="Nw4AGhwbBwVw_NAoLLml-88" value="PK" style="shape=partialRectangle;connectable=0;fillColor=none;top=0;left=0;bottom=0;right=0;fontStyle=1;overflow=hidden;whiteSpace=wrap;html=1;" vertex="1" parent="Nw4AGhwbBwVw_NAoLLml-87">
          <mxGeometry width="30" height="30" as="geometry">
            <mxRectangle width="30" height="30" as="alternateBounds" />
          </mxGeometry>
        </mxCell>
        <mxCell id="Nw4AGhwbBwVw_NAoLLml-89" value="event_id" style="shape=partialRectangle;connectable=0;fillColor=none;top=0;left=0;bottom=0;right=0;align=left;spacingLeft=6;fontStyle=5;overflow=hidden;whiteSpace=wrap;html=1;" vertex="1" parent="Nw4AGhwbBwVw_NAoLLml-87">
          <mxGeometry x="30" width="150" height="30" as="geometry">
            <mxRectangle width="150" height="30" as="alternateBounds" />
          </mxGeometry>
        </mxCell>
        <mxCell id="Nw4AGhwbBwVw_NAoLLml-90" value="" style="shape=tableRow;horizontal=0;startSize=0;swimlaneHead=0;swimlaneBody=0;fillColor=none;collapsible=0;dropTarget=0;points=[[0,0.5],[1,0.5]];portConstraint=eastwest;top=0;left=0;right=0;bottom=0;" vertex="1" parent="Nw4AGhwbBwVw_NAoLLml-86">
          <mxGeometry y="60" width="180" height="30" as="geometry" />
        </mxCell>
        <mxCell id="Nw4AGhwbBwVw_NAoLLml-91" value="" style="shape=partialRectangle;connectable=0;fillColor=none;top=0;left=0;bottom=0;right=0;editable=1;overflow=hidden;whiteSpace=wrap;html=1;" vertex="1" parent="Nw4AGhwbBwVw_NAoLLml-90">
          <mxGeometry width="30" height="30" as="geometry">
            <mxRectangle width="30" height="30" as="alternateBounds" />
          </mxGeometry>
        </mxCell>
        <mxCell id="Nw4AGhwbBwVw_NAoLLml-92" value="name" style="shape=partialRectangle;connectable=0;fillColor=none;top=0;left=0;bottom=0;right=0;align=left;spacingLeft=6;overflow=hidden;whiteSpace=wrap;html=1;" vertex="1" parent="Nw4AGhwbBwVw_NAoLLml-90">
          <mxGeometry x="30" width="150" height="30" as="geometry">
            <mxRectangle width="150" height="30" as="alternateBounds" />
          </mxGeometry>
        </mxCell>
        <mxCell id="Nw4AGhwbBwVw_NAoLLml-93" value="" style="shape=tableRow;horizontal=0;startSize=0;swimlaneHead=0;swimlaneBody=0;fillColor=none;collapsible=0;dropTarget=0;points=[[0,0.5],[1,0.5]];portConstraint=eastwest;top=0;left=0;right=0;bottom=0;" vertex="1" parent="Nw4AGhwbBwVw_NAoLLml-86">
          <mxGeometry y="90" width="180" height="30" as="geometry" />
        </mxCell>
        <mxCell id="Nw4AGhwbBwVw_NAoLLml-94" value="" style="shape=partialRectangle;connectable=0;fillColor=none;top=0;left=0;bottom=0;right=0;editable=1;overflow=hidden;whiteSpace=wrap;html=1;" vertex="1" parent="Nw4AGhwbBwVw_NAoLLml-93">
          <mxGeometry width="30" height="30" as="geometry">
            <mxRectangle width="30" height="30" as="alternateBounds" />
          </mxGeometry>
        </mxCell>
        <mxCell id="Nw4AGhwbBwVw_NAoLLml-95" value="description" style="shape=partialRectangle;connectable=0;fillColor=none;top=0;left=0;bottom=0;right=0;align=left;spacingLeft=6;overflow=hidden;whiteSpace=wrap;html=1;" vertex="1" parent="Nw4AGhwbBwVw_NAoLLml-93">
          <mxGeometry x="30" width="150" height="30" as="geometry">
            <mxRectangle width="150" height="30" as="alternateBounds" />
          </mxGeometry>
        </mxCell>
        <mxCell id="Nw4AGhwbBwVw_NAoLLml-96" value="" style="shape=tableRow;horizontal=0;startSize=0;swimlaneHead=0;swimlaneBody=0;fillColor=none;collapsible=0;dropTarget=0;points=[[0,0.5],[1,0.5]];portConstraint=eastwest;top=0;left=0;right=0;bottom=0;" vertex="1" parent="Nw4AGhwbBwVw_NAoLLml-86">
          <mxGeometry y="120" width="180" height="30" as="geometry" />
        </mxCell>
        <mxCell id="Nw4AGhwbBwVw_NAoLLml-97" value="" style="shape=partialRectangle;connectable=0;fillColor=none;top=0;left=0;bottom=0;right=0;editable=1;overflow=hidden;whiteSpace=wrap;html=1;" vertex="1" parent="Nw4AGhwbBwVw_NAoLLml-96">
          <mxGeometry width="30" height="30" as="geometry">
            <mxRectangle width="30" height="30" as="alternateBounds" />
          </mxGeometry>
        </mxCell>
        <mxCell id="Nw4AGhwbBwVw_NAoLLml-98" value="location" style="shape=partialRectangle;connectable=0;fillColor=none;top=0;left=0;bottom=0;right=0;align=left;spacingLeft=6;overflow=hidden;whiteSpace=wrap;html=1;" vertex="1" parent="Nw4AGhwbBwVw_NAoLLml-96">
          <mxGeometry x="30" width="150" height="30" as="geometry">
            <mxRectangle width="150" height="30" as="alternateBounds" />
          </mxGeometry>
        </mxCell>
        <mxCell id="Nw4AGhwbBwVw_NAoLLml-99" value="" style="shape=tableRow;horizontal=0;startSize=0;swimlaneHead=0;swimlaneBody=0;fillColor=none;collapsible=0;dropTarget=0;points=[[0,0.5],[1,0.5]];portConstraint=eastwest;top=0;left=0;right=0;bottom=0;" vertex="1" parent="Nw4AGhwbBwVw_NAoLLml-86">
          <mxGeometry y="150" width="180" height="30" as="geometry" />
        </mxCell>
        <mxCell id="Nw4AGhwbBwVw_NAoLLml-100" value="" style="shape=partialRectangle;connectable=0;fillColor=none;top=0;left=0;bottom=0;right=0;editable=1;overflow=hidden;whiteSpace=wrap;html=1;" vertex="1" parent="Nw4AGhwbBwVw_NAoLLml-99">
          <mxGeometry width="30" height="30" as="geometry">
            <mxRectangle width="30" height="30" as="alternateBounds" />
          </mxGeometry>
        </mxCell>
        <mxCell id="Nw4AGhwbBwVw_NAoLLml-101" value="event_date" style="shape=partialRectangle;connectable=0;fillColor=none;top=0;left=0;bottom=0;right=0;align=left;spacingLeft=6;overflow=hidden;whiteSpace=wrap;html=1;" vertex="1" parent="Nw4AGhwbBwVw_NAoLLml-99">
          <mxGeometry x="30" width="150" height="30" as="geometry">
            <mxRectangle width="150" height="30" as="alternateBounds" />
          </mxGeometry>
        </mxCell>
        <mxCell id="Nw4AGhwbBwVw_NAoLLml-102" value="" style="shape=tableRow;horizontal=0;startSize=0;swimlaneHead=0;swimlaneBody=0;fillColor=none;collapsible=0;dropTarget=0;points=[[0,0.5],[1,0.5]];portConstraint=eastwest;top=0;left=0;right=0;bottom=0;" vertex="1" parent="Nw4AGhwbBwVw_NAoLLml-86">
          <mxGeometry y="180" width="180" height="30" as="geometry" />
        </mxCell>
        <mxCell id="Nw4AGhwbBwVw_NAoLLml-103" value="" style="shape=partialRectangle;connectable=0;fillColor=none;top=0;left=0;bottom=0;right=0;editable=1;overflow=hidden;whiteSpace=wrap;html=1;" vertex="1" parent="Nw4AGhwbBwVw_NAoLLml-102">
          <mxGeometry width="30" height="30" as="geometry">
            <mxRectangle width="30" height="30" as="alternateBounds" />
          </mxGeometry>
        </mxCell>
        <mxCell id="Nw4AGhwbBwVw_NAoLLml-104" value="capacity" style="shape=partialRectangle;connectable=0;fillColor=none;top=0;left=0;bottom=0;right=0;align=left;spacingLeft=6;overflow=hidden;whiteSpace=wrap;html=1;" vertex="1" parent="Nw4AGhwbBwVw_NAoLLml-102">
          <mxGeometry x="30" width="150" height="30" as="geometry">
            <mxRectangle width="150" height="30" as="alternateBounds" />
          </mxGeometry>
        </mxCell>
        <mxCell id="Nw4AGhwbBwVw_NAoLLml-105" value="registrations" style="shape=table;startSize=30;container=1;collapsible=1;childLayout=tableLayout;fixedRows=1;rowLines=0;fontStyle=1;align=center;resizeLast=1;html=1;" vertex="1" parent="1">
          <mxGeometry x="335" y="570" width="180" height="150" as="geometry" />
        </mxCell>
        <mxCell id="Nw4AGhwbBwVw_NAoLLml-106" value="" style="shape=tableRow;horizontal=0;startSize=0;swimlaneHead=0;swimlaneBody=0;fillColor=none;collapsible=0;dropTarget=0;points=[[0,0.5],[1,0.5]];portConstraint=eastwest;top=0;left=0;right=0;bottom=1;" vertex="1" parent="Nw4AGhwbBwVw_NAoLLml-105">
          <mxGeometry y="30" width="180" height="30" as="geometry" />
        </mxCell>
        <mxCell id="Nw4AGhwbBwVw_NAoLLml-107" value="PK" style="shape=partialRectangle;connectable=0;fillColor=none;top=0;left=0;bottom=0;right=0;fontStyle=1;overflow=hidden;whiteSpace=wrap;html=1;" vertex="1" parent="Nw4AGhwbBwVw_NAoLLml-106">
          <mxGeometry width="30" height="30" as="geometry">
            <mxRectangle width="30" height="30" as="alternateBounds" />
          </mxGeometry>
        </mxCell>
        <mxCell id="Nw4AGhwbBwVw_NAoLLml-108" value="register_id" style="shape=partialRectangle;connectable=0;fillColor=none;top=0;left=0;bottom=0;right=0;align=left;spacingLeft=6;fontStyle=5;overflow=hidden;whiteSpace=wrap;html=1;" vertex="1" parent="Nw4AGhwbBwVw_NAoLLml-106">
          <mxGeometry x="30" width="150" height="30" as="geometry">
            <mxRectangle width="150" height="30" as="alternateBounds" />
          </mxGeometry>
        </mxCell>
        <mxCell id="Nw4AGhwbBwVw_NAoLLml-115" value="" style="shape=tableRow;horizontal=0;startSize=0;swimlaneHead=0;swimlaneBody=0;fillColor=none;collapsible=0;dropTarget=0;points=[[0,0.5],[1,0.5]];portConstraint=eastwest;top=0;left=0;right=0;bottom=0;" vertex="1" parent="Nw4AGhwbBwVw_NAoLLml-105">
          <mxGeometry y="60" width="180" height="30" as="geometry" />
        </mxCell>
        <mxCell id="Nw4AGhwbBwVw_NAoLLml-116" value="FK" style="shape=partialRectangle;connectable=0;fillColor=none;top=0;left=0;bottom=0;right=0;editable=1;overflow=hidden;whiteSpace=wrap;html=1;" vertex="1" parent="Nw4AGhwbBwVw_NAoLLml-115">
          <mxGeometry width="30" height="30" as="geometry">
            <mxRectangle width="30" height="30" as="alternateBounds" />
          </mxGeometry>
        </mxCell>
        <mxCell id="Nw4AGhwbBwVw_NAoLLml-117" value="member_id" style="shape=partialRectangle;connectable=0;fillColor=none;top=0;left=0;bottom=0;right=0;align=left;spacingLeft=6;overflow=hidden;whiteSpace=wrap;html=1;" vertex="1" parent="Nw4AGhwbBwVw_NAoLLml-115">
          <mxGeometry x="30" width="150" height="30" as="geometry">
            <mxRectangle width="150" height="30" as="alternateBounds" />
          </mxGeometry>
        </mxCell>
        <mxCell id="Nw4AGhwbBwVw_NAoLLml-118" value="" style="shape=tableRow;horizontal=0;startSize=0;swimlaneHead=0;swimlaneBody=0;fillColor=none;collapsible=0;dropTarget=0;points=[[0,0.5],[1,0.5]];portConstraint=eastwest;top=0;left=0;right=0;bottom=0;" vertex="1" parent="Nw4AGhwbBwVw_NAoLLml-105">
          <mxGeometry y="90" width="180" height="30" as="geometry" />
        </mxCell>
        <mxCell id="Nw4AGhwbBwVw_NAoLLml-119" value="FK" style="shape=partialRectangle;connectable=0;fillColor=none;top=0;left=0;bottom=0;right=0;editable=1;overflow=hidden;whiteSpace=wrap;html=1;" vertex="1" parent="Nw4AGhwbBwVw_NAoLLml-118">
          <mxGeometry width="30" height="30" as="geometry">
            <mxRectangle width="30" height="30" as="alternateBounds" />
          </mxGeometry>
        </mxCell>
        <mxCell id="Nw4AGhwbBwVw_NAoLLml-120" value="event_id" style="shape=partialRectangle;connectable=0;fillColor=none;top=0;left=0;bottom=0;right=0;align=left;spacingLeft=6;overflow=hidden;whiteSpace=wrap;html=1;" vertex="1" parent="Nw4AGhwbBwVw_NAoLLml-118">
          <mxGeometry x="30" width="150" height="30" as="geometry">
            <mxRectangle width="150" height="30" as="alternateBounds" />
          </mxGeometry>
        </mxCell>
        <mxCell id="Nw4AGhwbBwVw_NAoLLml-121" value="" style="shape=tableRow;horizontal=0;startSize=0;swimlaneHead=0;swimlaneBody=0;fillColor=none;collapsible=0;dropTarget=0;points=[[0,0.5],[1,0.5]];portConstraint=eastwest;top=0;left=0;right=0;bottom=0;" vertex="1" parent="Nw4AGhwbBwVw_NAoLLml-105">
          <mxGeometry y="120" width="180" height="30" as="geometry" />
        </mxCell>
        <mxCell id="Nw4AGhwbBwVw_NAoLLml-122" value="" style="shape=partialRectangle;connectable=0;fillColor=none;top=0;left=0;bottom=0;right=0;editable=1;overflow=hidden;whiteSpace=wrap;html=1;" vertex="1" parent="Nw4AGhwbBwVw_NAoLLml-121">
          <mxGeometry width="30" height="30" as="geometry">
            <mxRectangle width="30" height="30" as="alternateBounds" />
          </mxGeometry>
        </mxCell>
        <mxCell id="Nw4AGhwbBwVw_NAoLLml-123" value="registered_at" style="shape=partialRectangle;connectable=0;fillColor=none;top=0;left=0;bottom=0;right=0;align=left;spacingLeft=6;overflow=hidden;whiteSpace=wrap;html=1;" vertex="1" parent="Nw4AGhwbBwVw_NAoLLml-121">
          <mxGeometry x="30" width="150" height="30" as="geometry">
            <mxRectangle width="150" height="30" as="alternateBounds" />
          </mxGeometry>
        </mxCell>
        <mxCell id="Nw4AGhwbBwVw_NAoLLml-137" value="Roles" style="shape=table;startSize=30;container=1;collapsible=1;childLayout=tableLayout;fixedRows=1;rowLines=0;fontStyle=1;align=center;resizeLast=1;html=1;" vertex="1" parent="1">
          <mxGeometry x="610" y="810" width="180" height="120" as="geometry" />
        </mxCell>
        <mxCell id="Nw4AGhwbBwVw_NAoLLml-138" value="" style="shape=tableRow;horizontal=0;startSize=0;swimlaneHead=0;swimlaneBody=0;fillColor=none;collapsible=0;dropTarget=0;points=[[0,0.5],[1,0.5]];portConstraint=eastwest;top=0;left=0;right=0;bottom=1;" vertex="1" parent="Nw4AGhwbBwVw_NAoLLml-137">
          <mxGeometry y="30" width="180" height="30" as="geometry" />
        </mxCell>
        <mxCell id="Nw4AGhwbBwVw_NAoLLml-139" value="PK" style="shape=partialRectangle;connectable=0;fillColor=none;top=0;left=0;bottom=0;right=0;fontStyle=1;overflow=hidden;whiteSpace=wrap;html=1;" vertex="1" parent="Nw4AGhwbBwVw_NAoLLml-138">
          <mxGeometry width="30" height="30" as="geometry">
            <mxRectangle width="30" height="30" as="alternateBounds" />
          </mxGeometry>
        </mxCell>
        <mxCell id="Nw4AGhwbBwVw_NAoLLml-140" value="role_id" style="shape=partialRectangle;connectable=0;fillColor=none;top=0;left=0;bottom=0;right=0;align=left;spacingLeft=6;fontStyle=5;overflow=hidden;whiteSpace=wrap;html=1;" vertex="1" parent="Nw4AGhwbBwVw_NAoLLml-138">
          <mxGeometry x="30" width="150" height="30" as="geometry">
            <mxRectangle width="150" height="30" as="alternateBounds" />
          </mxGeometry>
        </mxCell>
        <mxCell id="Nw4AGhwbBwVw_NAoLLml-141" value="" style="shape=tableRow;horizontal=0;startSize=0;swimlaneHead=0;swimlaneBody=0;fillColor=none;collapsible=0;dropTarget=0;points=[[0,0.5],[1,0.5]];portConstraint=eastwest;top=0;left=0;right=0;bottom=0;" vertex="1" parent="Nw4AGhwbBwVw_NAoLLml-137">
          <mxGeometry y="60" width="180" height="30" as="geometry" />
        </mxCell>
        <mxCell id="Nw4AGhwbBwVw_NAoLLml-142" value="" style="shape=partialRectangle;connectable=0;fillColor=none;top=0;left=0;bottom=0;right=0;editable=1;overflow=hidden;whiteSpace=wrap;html=1;" vertex="1" parent="Nw4AGhwbBwVw_NAoLLml-141">
          <mxGeometry width="30" height="30" as="geometry">
            <mxRectangle width="30" height="30" as="alternateBounds" />
          </mxGeometry>
        </mxCell>
        <mxCell id="Nw4AGhwbBwVw_NAoLLml-143" value="name" style="shape=partialRectangle;connectable=0;fillColor=none;top=0;left=0;bottom=0;right=0;align=left;spacingLeft=6;overflow=hidden;whiteSpace=wrap;html=1;" vertex="1" parent="Nw4AGhwbBwVw_NAoLLml-141">
          <mxGeometry x="30" width="150" height="30" as="geometry">
            <mxRectangle width="150" height="30" as="alternateBounds" />
          </mxGeometry>
        </mxCell>
        <mxCell id="Nw4AGhwbBwVw_NAoLLml-147" value="" style="shape=tableRow;horizontal=0;startSize=0;swimlaneHead=0;swimlaneBody=0;fillColor=none;collapsible=0;dropTarget=0;points=[[0,0.5],[1,0.5]];portConstraint=eastwest;top=0;left=0;right=0;bottom=0;" vertex="1" parent="Nw4AGhwbBwVw_NAoLLml-137">
          <mxGeometry y="90" width="180" height="30" as="geometry" />
        </mxCell>
        <mxCell id="Nw4AGhwbBwVw_NAoLLml-148" value="" style="shape=partialRectangle;connectable=0;fillColor=none;top=0;left=0;bottom=0;right=0;editable=1;overflow=hidden;whiteSpace=wrap;html=1;" vertex="1" parent="Nw4AGhwbBwVw_NAoLLml-147">
          <mxGeometry width="30" height="30" as="geometry">
            <mxRectangle width="30" height="30" as="alternateBounds" />
          </mxGeometry>
        </mxCell>
        <mxCell id="Nw4AGhwbBwVw_NAoLLml-149" value="description" style="shape=partialRectangle;connectable=0;fillColor=none;top=0;left=0;bottom=0;right=0;align=left;spacingLeft=6;overflow=hidden;whiteSpace=wrap;html=1;" vertex="1" parent="Nw4AGhwbBwVw_NAoLLml-147">
          <mxGeometry x="30" width="150" height="30" as="geometry">
            <mxRectangle width="150" height="30" as="alternateBounds" />
          </mxGeometry>
        </mxCell>
        <mxCell id="Nw4AGhwbBwVw_NAoLLml-150" value="description" style="ellipse;whiteSpace=wrap;html=1;align=center;" vertex="1" parent="1">
          <mxGeometry x="170" y="400" width="100" height="40" as="geometry" />
        </mxCell>
        <mxCell id="Nw4AGhwbBwVw_NAoLLml-151" value="" style="endArrow=none;html=1;rounded=0;" edge="1" parent="1" source="Nw4AGhwbBwVw_NAoLLml-150" target="Nw4AGhwbBwVw_NAoLLml-5">
          <mxGeometry relative="1" as="geometry">
            <mxPoint x="136" y="420" as="sourcePoint" />
            <mxPoint x="144" y="390" as="targetPoint" />
          </mxGeometry>
        </mxCell>
        <mxCell id="Nw4AGhwbBwVw_NAoLLml-152" value="MemberRoles" style="shape=table;startSize=30;container=1;collapsible=1;childLayout=tableLayout;fixedRows=1;rowLines=0;fontStyle=1;align=center;resizeLast=1;html=1;" vertex="1" parent="1">
          <mxGeometry x="335" y="760" width="180" height="120" as="geometry" />
        </mxCell>
        <mxCell id="Nw4AGhwbBwVw_NAoLLml-153" value="" style="shape=tableRow;horizontal=0;startSize=0;swimlaneHead=0;swimlaneBody=0;fillColor=none;collapsible=0;dropTarget=0;points=[[0,0.5],[1,0.5]];portConstraint=eastwest;top=0;left=0;right=0;bottom=1;" vertex="1" parent="Nw4AGhwbBwVw_NAoLLml-152">
          <mxGeometry y="30" width="180" height="30" as="geometry" />
        </mxCell>
        <mxCell id="Nw4AGhwbBwVw_NAoLLml-154" value="PK" style="shape=partialRectangle;connectable=0;fillColor=none;top=0;left=0;bottom=0;right=0;fontStyle=1;overflow=hidden;whiteSpace=wrap;html=1;" vertex="1" parent="Nw4AGhwbBwVw_NAoLLml-153">
          <mxGeometry width="30" height="30" as="geometry">
            <mxRectangle width="30" height="30" as="alternateBounds" />
          </mxGeometry>
        </mxCell>
        <mxCell id="Nw4AGhwbBwVw_NAoLLml-155" value="member_role_id" style="shape=partialRectangle;connectable=0;fillColor=none;top=0;left=0;bottom=0;right=0;align=left;spacingLeft=6;fontStyle=5;overflow=hidden;whiteSpace=wrap;html=1;" vertex="1" parent="Nw4AGhwbBwVw_NAoLLml-153">
          <mxGeometry x="30" width="150" height="30" as="geometry">
            <mxRectangle width="150" height="30" as="alternateBounds" />
          </mxGeometry>
        </mxCell>
        <mxCell id="Nw4AGhwbBwVw_NAoLLml-156" value="" style="shape=tableRow;horizontal=0;startSize=0;swimlaneHead=0;swimlaneBody=0;fillColor=none;collapsible=0;dropTarget=0;points=[[0,0.5],[1,0.5]];portConstraint=eastwest;top=0;left=0;right=0;bottom=0;" vertex="1" parent="Nw4AGhwbBwVw_NAoLLml-152">
          <mxGeometry y="60" width="180" height="30" as="geometry" />
        </mxCell>
        <mxCell id="Nw4AGhwbBwVw_NAoLLml-157" value="FK" style="shape=partialRectangle;connectable=0;fillColor=none;top=0;left=0;bottom=0;right=0;editable=1;overflow=hidden;whiteSpace=wrap;html=1;" vertex="1" parent="Nw4AGhwbBwVw_NAoLLml-156">
          <mxGeometry width="30" height="30" as="geometry">
            <mxRectangle width="30" height="30" as="alternateBounds" />
          </mxGeometry>
        </mxCell>
        <mxCell id="Nw4AGhwbBwVw_NAoLLml-158" value="member_id" style="shape=partialRectangle;connectable=0;fillColor=none;top=0;left=0;bottom=0;right=0;align=left;spacingLeft=6;overflow=hidden;whiteSpace=wrap;html=1;" vertex="1" parent="Nw4AGhwbBwVw_NAoLLml-156">
          <mxGeometry x="30" width="150" height="30" as="geometry">
            <mxRectangle width="150" height="30" as="alternateBounds" />
          </mxGeometry>
        </mxCell>
        <mxCell id="Nw4AGhwbBwVw_NAoLLml-159" value="" style="shape=tableRow;horizontal=0;startSize=0;swimlaneHead=0;swimlaneBody=0;fillColor=none;collapsible=0;dropTarget=0;points=[[0,0.5],[1,0.5]];portConstraint=eastwest;top=0;left=0;right=0;bottom=0;" vertex="1" parent="Nw4AGhwbBwVw_NAoLLml-152">
          <mxGeometry y="90" width="180" height="30" as="geometry" />
        </mxCell>
        <mxCell id="Nw4AGhwbBwVw_NAoLLml-160" value="FK" style="shape=partialRectangle;connectable=0;fillColor=none;top=0;left=0;bottom=0;right=0;editable=1;overflow=hidden;whiteSpace=wrap;html=1;" vertex="1" parent="Nw4AGhwbBwVw_NAoLLml-159">
          <mxGeometry width="30" height="30" as="geometry">
            <mxRectangle width="30" height="30" as="alternateBounds" />
          </mxGeometry>
        </mxCell>
        <mxCell id="Nw4AGhwbBwVw_NAoLLml-161" value="role_id" style="shape=partialRectangle;connectable=0;fillColor=none;top=0;left=0;bottom=0;right=0;align=left;spacingLeft=6;overflow=hidden;whiteSpace=wrap;html=1;" vertex="1" parent="Nw4AGhwbBwVw_NAoLLml-159">
          <mxGeometry x="30" width="150" height="30" as="geometry">
            <mxRectangle width="150" height="30" as="alternateBounds" />
          </mxGeometry>
        </mxCell>
        <mxCell id="Nw4AGhwbBwVw_NAoLLml-162" value="" style="edgeStyle=entityRelationEdgeStyle;fontSize=12;html=1;endArrow=ERoneToMany;startArrow=ERmandOne;rounded=0;" edge="1" parent="1" source="Nw4AGhwbBwVw_NAoLLml-74" target="Nw4AGhwbBwVw_NAoLLml-115">
          <mxGeometry width="100" height="100" relative="1" as="geometry">
            <mxPoint x="-150" y="960" as="sourcePoint" />
            <mxPoint x="-50" y="860" as="targetPoint" />
          </mxGeometry>
        </mxCell>
        <mxCell id="Nw4AGhwbBwVw_NAoLLml-163" value="" style="edgeStyle=entityRelationEdgeStyle;fontSize=12;html=1;endArrow=ERoneToMany;startArrow=ERmandOne;rounded=0;" edge="1" parent="1" source="Nw4AGhwbBwVw_NAoLLml-87" target="Nw4AGhwbBwVw_NAoLLml-118">
          <mxGeometry width="100" height="100" relative="1" as="geometry">
            <mxPoint x="250" y="625" as="sourcePoint" />
            <mxPoint x="345" y="655" as="targetPoint" />
          </mxGeometry>
        </mxCell>
        <mxCell id="Nw4AGhwbBwVw_NAoLLml-164" value="" style="edgeStyle=entityRelationEdgeStyle;fontSize=12;html=1;endArrow=ERoneToMany;startArrow=ERmandOne;rounded=0;" edge="1" parent="1" source="Nw4AGhwbBwVw_NAoLLml-74" target="Nw4AGhwbBwVw_NAoLLml-156">
          <mxGeometry width="100" height="100" relative="1" as="geometry">
            <mxPoint x="660" y="625" as="sourcePoint" />
            <mxPoint x="525" y="685" as="targetPoint" />
          </mxGeometry>
        </mxCell>
        <mxCell id="Nw4AGhwbBwVw_NAoLLml-165" value="" style="edgeStyle=entityRelationEdgeStyle;fontSize=12;html=1;endArrow=ERoneToMany;startArrow=ERmandOne;rounded=0;" edge="1" parent="1" source="Nw4AGhwbBwVw_NAoLLml-138" target="Nw4AGhwbBwVw_NAoLLml-159">
          <mxGeometry width="100" height="100" relative="1" as="geometry">
            <mxPoint x="250" y="625" as="sourcePoint" />
            <mxPoint x="250" y="855" as="targetPoint" />
          </mxGeometry>
        </mxCell>
      </root>
    </mxGraphModel>
  </diagram>
</mxfile>
